<svg width="17" height="20" viewBox="0 0 17 20" fill="none" xmlns="http://www.w3.org/2000/svg">
<path d="M5.94711 13.5498C7.41107 13.4338 8.88175 13.4338 10.3457 13.5498C11.1429 13.5955 11.9363 13.6936 12.7209 13.8434C14.4188 14.1815 15.5272 14.7331 16.0023 15.6228C16.3591 16.3171 16.3591 17.1437 16.0023 17.8381C15.5272 18.7278 14.4628 19.3149 12.7033 19.6174C11.9193 19.7729 11.1257 19.874 10.3281 19.9199C9.58915 20 8.85018 20 8.10242 20H6.75645C6.47494 19.9644 6.20223 19.9466 5.93832 19.9466C5.14065 19.9063 4.34687 19.8082 3.56308 19.653C1.86522 19.3327 0.756776 18.7633 0.281728 17.8737C0.0983425 17.529 0.00166164 17.144 0.000105976 16.7527C-0.00360409 16.3589 0.0901529 15.9705 0.272931 15.6228C0.739182 14.7331 1.84763 14.1548 3.56308 13.8434C4.35032 13.6915 5.14681 13.5934 5.94711 13.5498ZM8.13761 0C11.0868 0 13.4775 2.41782 13.4775 5.40036C13.4775 8.38289 11.0868 10.8007 8.13761 10.8007C5.18847 10.8007 2.79772 8.38289 2.79772 5.40036C2.79772 2.41782 5.18847 0 8.13761 0Z" fill="black"/>
</svg>
